<?xml version="1.0" standalone="no"?>
<!DOCTYPE svg PUBLIC "-//W3C//DTD SVG 20010904//EN"
 "http://www.w3.org/TR/2001/REC-SVG-20010904/DTD/svg10.dtd">
<svg version="1.0" xmlns="http://www.w3.org/2000/svg"
 width="600.000000pt" height="600.000000pt" viewBox="0 0 600.000000 600.000000"
 preserveAspectRatio="xMidYMid meet">
<metadata>
Created by potrace 1.11, written by Peter Selinger 2001-2013
</metadata>
<g transform="translate(0.000000,600.000000) scale(0.100000,-0.100000)"
fill="#000000" stroke="none">
<path d="M5660 5829 c-25 -4 -72 -10 -105 -14 -33 -3 -82 -11 -110 -16 -27 -5
-66 -12 -85 -15 -19 -3 -43 -7 -52 -10 -9 -3 -26 -7 -38 -9 -126 -24 -471
-120 -565 -157 -27 -11 -51 -19 -52 -19 -6 1 -117 -39 -278 -101 -189 -74
-539 -240 -760 -363 -258 -143 -591 -359 -852 -552 -124 -91 -382 -295 -421
-333 -25 -23 -38 -23 -317 -5 -106 7 -207 14 -327 21 -132 7 -113 15 -237 -94
-36 -33 -142 -126 -236 -208 -93 -82 -183 -161 -200 -176 -16 -15 -42 -37 -57
-50 -301 -257 -637 -556 -637 -566 -1 -7 2 -11 7 -8 12 7 165 -12 276 -35 277
-57 581 -177 858 -336 81 -47 96 -59 92 -77 -3 -12 -8 -84 -11 -161 -3 -77 -6
-141 -7 -142 -1 -1 -17 -5 -35 -8 -19 -3 -37 -8 -41 -10 -3 -2 -17 -6 -31 -9
-13 -3 -35 -7 -49 -10 -14 -3 -72 -22 -129 -42 -278 -96 -465 -225 -584 -403
-50 -73 -137 -242 -137 -264 0 -7 -4 -17 -9 -22 -11 -12 -90 -258 -97 -305 -3
-19 -8 -38 -11 -42 -5 -9 -5 -10 -33 -158 -11 -58 -22 -123 -24 -145 -3 -22
-10 -71 -15 -110 -5 -38 -13 -99 -16 -135 -3 -36 -8 -85 -10 -110 -3 -25 -7
-106 -10 -181 l-6 -137 38 3 c21 2 94 6 163 9 69 4 139 8 155 10 17 2 64 7
105 11 41 4 82 9 90 10 8 1 40 6 70 10 30 3 87 13 125 20 39 7 88 16 109 20
162 24 447 115 601 190 236 116 364 244 482 480 49 97 112 269 143 388 l23 87
96 1 c53 0 105 2 116 4 38 8 91 9 102 2 26 -16 174 -296 238 -452 59 -141 122
-336 141 -435 3 -14 9 -41 14 -60 11 -43 30 -173 35 -238 2 -26 4 -48 4 -49 1
-2 18 16 39 40 41 45 54 59 182 207 45 52 109 124 140 160 32 36 126 144 210
240 146 168 233 267 311 355 19 22 49 56 66 75 17 19 58 67 92 105 l62 70 -6
125 c-3 69 -8 152 -10 185 -7 77 -12 159 -20 310 l-7 121 34 40 c18 22 49 59
68 83 19 24 40 48 46 55 15 16 291 382 317 421 203 299 280 422 397 625 75
130 247 464 298 580 48 108 112 263 146 355 21 55 42 109 46 120 18 42 101
305 134 427 43 160 92 392 111 533 3 22 7 49 10 60 2 11 7 66 11 123 l6 103
-68 -3 c-38 -1 -89 -5 -114 -9z"/>
</g>
</svg>
