<svg version="1.1" xmlns="http://www.w3.org/2000/svg" viewBox="0 0 2344.3076923076896 1188.0547589665284" width="2344.3076923076896" height="1188.0547589665284">
  <!-- svg-source:excalidraw -->
  
  <defs>
    <style>
      @font-face {
        font-family: "Virgil";
        src: url("https://unpkg.com/@zsviczian/excalidraw@0.12.0-obsidian-8/dist/excalidraw-assets/Virgil.woff2");
      }
      @font-face {
        font-family: "Cascadia";
        src: url("https://unpkg.com/@zsviczian/excalidraw@0.12.0-obsidian-8/dist/excalidraw-assets/Cascadia.woff2");
      }
    </style>
  </defs>
  <rect x="0" y="0" width="2344.3076923076896" height="1188.0547589665284" fill="#ffffff"></rect><g stroke-linecap="round" transform="translate(410.8907758907744 206.9478299478269) rotate(0 41.5 217)"><path d="M0 0 C26.29 0, 52.58 0, 83 0 M0 0 C22.89 0, 45.78 0, 83 0 M83 0 C83 110.1, 83 220.19, 83 434 M83 0 C83 166.88, 83 333.77, 83 434 M83 434 C65.69 434, 48.39 434, 0 434 M83 434 C50.95 434, 18.9 434, 0 434 M0 434 C0 283.09, 0 132.18, 0 0 M0 434 C0 270.66, 0 107.32, 0 0" stroke="#000000" stroke-width="1" fill="none"></path></g><g transform="translate(415.8907758907744 411.9478299478269) rotate(0 36.5 12)"><text x="36.5" y="19" font-family="Cascadia, Segoe UI Emoji" font-size="20px" fill="#000000" text-anchor="middle" style="white-space: pre;" direction="ltr">API</text></g><g transform="translate(516.3597513597488 375.411257630627) rotate(0 71 13)"><text x="71" y="21" font-family="Cascadia, Segoe UI Emoji" font-size="21.80103312687936px" fill="#000000" text-anchor="middle" style="white-space: pre;" direction="ltr">Celery Task</text></g><g stroke-linecap="round" transform="translate(805.3962703962688 382.4434454434431) rotate(0 124.5 44.5)"><path d="M0 0 C97.39 0, 194.79 0, 249 0 M0 0 C52.83 0, 105.66 0, 249 0 M249 0 C249 22.3, 249 44.61, 249 89 M249 0 C249 29.32, 249 58.65, 249 89 M249 89 C158.31 89, 67.61 89, 0 89 M249 89 C185.78 89, 122.57 89, 0 89 M0 89 C0 54.2, 0 19.4, 0 0 M0 89 C0 65.63, 0 42.25, 0 0" stroke="#000000" stroke-width="1" fill="none"></path></g><g transform="translate(810.3962703962688 414.9434454434431) rotate(0 119.5 12)"><text x="119.5" y="19" font-family="Cascadia, Segoe UI Emoji" font-size="20px" fill="#000000" text-anchor="middle" style="white-space: pre;" direction="ltr">Extract user's query</text></g><g stroke-linecap="round" transform="translate(803.1787101787095 126.8024198024159) rotate(0 124.5 44.5)"><path d="M0 0 C60.02 0, 120.05 0, 249 0 M0 0 C84.82 0, 169.63 0, 249 0 M249 0 C249 34.09, 249 68.19, 249 89 M249 0 C249 31.58, 249 63.16, 249 89 M249 89 C184.62 89, 120.24 89, 0 89 M249 89 C194.71 89, 140.41 89, 0 89 M0 89 C0 55.51, 0 22.02, 0 0 M0 89 C0 53.55, 0 18.11, 0 0" stroke="#000000" stroke-width="1" fill="none"></path></g><g transform="translate(808.1787101787095 147.3024198024159) rotate(0 119.5 24)"><text x="119.5" y="19" font-family="Cascadia, Segoe UI Emoji" font-size="20px" fill="#000000" text-anchor="middle" style="white-space: pre;" direction="ltr">Ensure session(s) </text><text x="119.5" y="43" font-family="Cascadia, Segoe UI Emoji" font-size="20px" fill="#000000" text-anchor="middle" style="white-space: pre;" direction="ltr">exists</text></g><g stroke-linecap="round" transform="translate(1231.9323095205436 544.3050478932819) rotate(0 124.5 44.5)"><path d="M0 0 C53.41 0, 106.82 0, 249 0 M0 0 C55.04 0, 110.08 0, 249 0 M249 0 C249 25.28, 249 50.56, 249 89 M249 0 C249 34.56, 249 69.11, 249 89 M249 89 C189.05 89, 129.1 89, 0 89 M249 89 C175.84 89, 102.68 89, 0 89 M0 89 C0 66.79, 0 44.58, 0 0 M0 89 C0 63.16, 0 37.32, 0 0" stroke="#000000" stroke-width="1" fill="none"></path></g><g transform="translate(1236.9323095205436 576.8050478932819) rotate(0 119.5 12)"><text x="119.5" y="19" font-family="Cascadia, Segoe UI Emoji" font-size="20px" fill="#000000" text-anchor="middle" style="white-space: pre;" direction="ltr">Conversation history</text></g><g stroke-linecap="round" transform="translate(1691.4304584304564 197.9290709290708) rotate(0 124.5 44.5)"><path d="M0 0 C91.51 0, 183.02 0, 249 0 M0 0 C77.96 0, 155.93 0, 249 0 M249 0 C249 18.49, 249 36.98, 249 89 M249 0 C249 22.86, 249 45.72, 249 89 M249 89 C153.85 89, 58.7 89, 0 89 M249 89 C160.13 89, 71.25 89, 0 89 M0 89 C0 60.72, 0 32.44, 0 0 M0 89 C0 58.35, 0 27.71, 0 0" stroke="#000000" stroke-width="1" fill="none"></path></g><g transform="translate(1696.4304584304564 230.4290709290708) rotate(0 119.5 12)"><text x="119.5" y="19" font-family="Cascadia, Segoe UI Emoji" font-size="20px" fill="#000000" text-anchor="middle" style="white-space: pre;" direction="ltr">Safety bot</text></g><g stroke-linecap="round"><g transform="translate(1175.3710178710153 49.002497502497135) rotate(0 -0.9090909090909918 383.6363636363635)"><path d="M0 0 C-0.5 211.62, -1 423.24, -1.82 767.27" stroke="#000000" stroke-width="1.5" fill="none" stroke-dasharray="8 9"></path></g></g><g stroke-linecap="round"><g transform="translate(692.6437451437423 52.63886113885928) rotate(0 -0.9090909090909918 383.6363636363635)"><path d="M0 0 C-0.4 170.24, -0.81 340.47, -1.82 767.27" stroke="#000000" stroke-width="1.5" fill="none" stroke-dasharray="8 9"></path></g></g><g stroke-linecap="round"><g transform="translate(1962.993395493393 62.28921078920939) rotate(0 -0.9090909090909918 383.6363636363635)"><path d="M0 0 C-0.37 156.25, -0.74 312.5, -1.82 767.27" stroke="#000000" stroke-width="1.5" fill="none" stroke-dasharray="8 9"></path></g></g><g transform="translate(739.0073815073783 13.320679320679119) rotate(0 180 21.5)"><text x="180" y="35" font-family="Cascadia, Segoe UI Emoji" font-size="36px" fill="#000000" text-anchor="middle" style="white-space: pre;" direction="ltr">Channel Interface</text></g><g transform="translate(1422.6462426462394 10) rotate(0 137.5 21.5)"><text x="137.5" y="35" font-family="Cascadia, Segoe UI Emoji" font-size="36px" fill="#000000" text-anchor="middle" style="white-space: pre;" direction="ltr">LLM interface</text></g><g stroke-linecap="round"><g transform="translate(501.04530134217384 423.11764628031233) rotate(0 88.49619159775398 1.3666680353344418)"><path d="M0 0 C60.29 0.93, 120.58 1.86, 176.99 2.73 M0 0 C67.8 1.05, 135.6 2.09, 176.99 2.73" stroke="#000000" stroke-width="1" fill="none"></path></g><g transform="translate(501.04530134217384 423.11764628031233) rotate(0 88.49619159775398 1.3666680353344418)"><path d="M148.65 12.56 C158.3 9.21, 167.96 5.86, 176.99 2.73 M148.65 12.56 C159.5 8.79, 170.36 5.03, 176.99 2.73" stroke="#000000" stroke-width="1" fill="none"></path></g><g transform="translate(501.04530134217384 423.11764628031233) rotate(0 88.49619159775398 1.3666680353344418)"><path d="M148.96 -7.96 C158.51 -4.32, 168.06 -0.68, 176.99 2.73 M148.96 -7.96 C159.7 -3.86, 170.44 0.23, 176.99 2.73" stroke="#000000" stroke-width="1" fill="none"></path></g></g><g stroke-linecap="round" transform="translate(1430.0878010877987 373.31368631368605) rotate(0 124.5 44.5)"><path d="M0 0 C57.2 0, 114.39 0, 249 0 M0 0 C86.73 0, 173.47 0, 249 0 M249 0 C249 28.37, 249 56.73, 249 89 M249 0 C249 27.74, 249 55.49, 249 89 M249 89 C190.23 89, 131.46 89, 0 89 M249 89 C195.26 89, 141.53 89, 0 89 M0 89 C0 60.48, 0 31.95, 0 0 M0 89 C0 67.44, 0 45.87, 0 0" stroke="#000000" stroke-width="1" fill="none"></path></g><g transform="translate(1435.0878010877987 405.81368631368605) rotate(0 119.5 12)"><text x="119.5" y="19" font-family="Cascadia, Segoe UI Emoji" font-size="20px" fill="#000000" text-anchor="middle" style="white-space: pre;" direction="ltr">Formulate LLM prompt</text></g><g stroke-linecap="round" transform="translate(816.0769230769201 685.289005112535) rotate(0 124.5 44.5)"><path d="M0 0 C54.16 0, 108.32 0, 249 0 M0 0 C96.63 0, 193.27 0, 249 0 M249 0 C249 20.98, 249 41.96, 249 89 M249 0 C249 25.58, 249 51.15, 249 89 M249 89 C180.22 89, 111.44 89, 0 89 M249 89 C197.28 89, 145.57 89, 0 89 M0 89 C0 55.95, 0 22.89, 0 0 M0 89 C0 55.37, 0 21.75, 0 0" stroke="#000000" stroke-width="1" fill="none"></path></g><g transform="translate(821.0769230769201 705.789005112535) rotate(0 119.5 24)"><text x="119.5" y="19" font-family="Cascadia, Segoe UI Emoji" font-size="20px" fill="#000000" text-anchor="middle" style="white-space: pre;" direction="ltr">Return response to </text><text x="119.5" y="43" font-family="Cascadia, Segoe UI Emoji" font-size="20px" fill="#000000" text-anchor="middle" style="white-space: pre;" direction="ltr">user</text></g><g stroke-linecap="round" transform="translate(1245.7272727272693 189.90438972792163) rotate(0 124.5 44.5)"><path d="M0 0 C85.04 0, 170.08 0, 249 0 M0 0 C77.58 0, 155.15 0, 249 0 M249 0 C249 26.96, 249 53.92, 249 89 M249 0 C249 26.1, 249 52.2, 249 89 M249 89 C177.75 89, 106.5 89, 0 89 M249 89 C151.25 89, 53.51 89, 0 89 M0 89 C0 69.11, 0 49.21, 0 0 M0 89 C0 55.26, 0 21.53, 0 0" stroke="#000000" stroke-width="1" fill="none"></path></g><g transform="translate(1250.7272727272693 222.40438972792163) rotate(0 119.5 12)"><text x="119.5" y="19" font-family="Cascadia, Segoe UI Emoji" font-size="20px" fill="#000000" text-anchor="middle" style="white-space: pre;" direction="ltr">Source material</text></g><g stroke-linecap="round" transform="translate(1611.4615384615345 680.673620497153) rotate(0 124.5 44.5)"><path d="M0 0 C59.67 0, 119.33 0, 249 0 M0 0 C93.31 0, 186.61 0, 249 0 M249 0 C249 31.15, 249 62.31, 249 89 M249 0 C249 23.05, 249 46.1, 249 89 M249 89 C172.71 89, 96.42 89, 0 89 M249 89 C185.53 89, 122.06 89, 0 89 M0 89 C0 58.12, 0 27.24, 0 0 M0 89 C0 56.37, 0 23.75, 0 0" stroke="#000000" stroke-width="1" fill="none"></path></g><g transform="translate(1616.4615384615345 713.173620497153) rotate(0 119.5 12)"><text x="119.5" y="19" font-family="Cascadia, Segoe UI Emoji" font-size="20px" fill="#000000" text-anchor="middle" style="white-space: pre;" direction="ltr">Response</text></g><g stroke-linecap="round"><g transform="translate(1396.801439368207 292.86592818945974) rotate(0 65.59256577475253 36.15384615384619)"><path d="M0 0 C32.88 18.12, 65.75 36.24, 131.19 72.31 M0 0 C43.22 23.82, 86.44 47.65, 131.19 72.31" stroke="#000000" stroke-width="1" fill="none"></path></g><g transform="translate(1396.801439368207 292.86592818945974) rotate(0 65.59256577475253 36.15384615384619)"><path d="M101.54 67.69 C108.97 68.84, 116.4 70, 131.19 72.31 M101.54 67.69 C111.31 69.21, 121.08 70.73, 131.19 72.31" stroke="#000000" stroke-width="1" fill="none"></path></g><g transform="translate(1396.801439368207 292.86592818945974) rotate(0 65.59256577475253 36.15384615384619)"><path d="M111.45 49.71 C116.4 55.38, 121.34 61.04, 131.19 72.31 M111.45 49.71 C117.95 57.16, 124.45 64.6, 131.19 72.31" stroke="#000000" stroke-width="1" fill="none"></path></g></g><g stroke-linecap="round"><g transform="translate(1704.884910617684 304.6141799377119) rotate(0 -44.400625645241234 28.74125874125866)"><path d="M0 0 C-26.72 17.3, -53.45 34.6, -88.8 57.48 M0 0 C-27.57 17.84, -55.13 35.69, -88.8 57.48" stroke="#000000" stroke-width="1" fill="none"></path></g><g transform="translate(1704.884910617684 304.6141799377119) rotate(0 -44.400625645241234 28.74125874125866)"><path d="M-70.71 33.55 C-76.16 40.75, -81.6 47.95, -88.8 57.48 M-70.71 33.55 C-76.33 40.98, -81.94 48.41, -88.8 57.48" stroke="#000000" stroke-width="1" fill="none"></path></g><g transform="translate(1704.884910617684 304.6141799377119) rotate(0 -44.400625645241234 28.74125874125866)"><path d="M-59.56 50.78 C-68.36 52.79, -77.16 54.81, -88.8 57.48 M-59.56 50.78 C-68.64 52.86, -77.72 54.94, -88.8 57.48" stroke="#000000" stroke-width="1" fill="none"></path></g></g><g stroke-linecap="round"><g transform="translate(1442.1153846153807 529.7890051125369) rotate(0 44.61538461538453 -26.15384615384619)"><path d="M0 0 C34.18 -20.04, 68.36 -40.07, 89.23 -52.31 M0 0 C31.66 -18.56, 63.33 -37.12, 89.23 -52.31" stroke="#000000" stroke-width="1" fill="none"></path></g><g transform="translate(1442.1153846153807 529.7890051125369) rotate(0 44.61538461538453 -26.15384615384619)"><path d="M70.1 -29.2 C77.43 -38.05, 84.76 -46.9, 89.23 -52.31 M70.1 -29.2 C76.89 -37.4, 83.68 -45.6, 89.23 -52.31" stroke="#000000" stroke-width="1" fill="none"></path></g><g transform="translate(1442.1153846153807 529.7890051125369) rotate(0 44.61538461538453 -26.15384615384619)"><path d="M59.72 -46.9 C71.03 -48.97, 82.33 -51.04, 89.23 -52.31 M59.72 -46.9 C70.19 -48.82, 80.66 -50.74, 89.23 -52.31" stroke="#000000" stroke-width="1" fill="none"></path></g></g><g stroke-linecap="round" transform="translate(2085.3076923076896 371.4428512663908) rotate(0 124.5 44.5)"><path d="M0 0 C86.73 0, 173.47 0, 249 0 M0 0 C79.36 0, 158.72 0, 249 0 M249 0 C249 27.74, 249 55.49, 249 89 M249 0 C249 21.01, 249 42.01, 249 89 M249 89 C195.26 89, 141.53 89, 0 89 M249 89 C169.2 89, 89.39 89, 0 89 M0 89 C0 67.44, 0 45.87, 0 0 M0 89 C0 63.73, 0 38.47, 0 0" stroke="#000000" stroke-width="1" fill="none"></path></g><g transform="translate(2090.3076923076896 403.9428512663908) rotate(0 119.5 12)"><text x="119.5" y="19" font-family="Cascadia, Segoe UI Emoji" font-size="20px" fill="#000000" text-anchor="middle" style="white-space: pre;" direction="ltr">LLM at vendor</text></g><g stroke-linecap="round"><g transform="translate(1699.0384615384592 423.6351589586984) rotate(0 186.92307692307713 -1.5384615384609788)"><path d="M0 0 C145.08 -1.19, 290.17 -2.39, 373.85 -3.08 M0 0 C88.13 -0.73, 176.26 -1.45, 373.85 -3.08" stroke="#000000" stroke-width="1" fill="none"></path></g><g transform="translate(1699.0384615384592 423.6351589586984) rotate(0 186.92307692307713 -1.5384615384609788)"><path d="M345.74 7.42 C356.65 3.34, 367.56 -0.73, 373.85 -3.08 M345.74 7.42 C352.37 4.94, 358.99 2.47, 373.85 -3.08" stroke="#000000" stroke-width="1" fill="none"></path></g><g transform="translate(1699.0384615384592 423.6351589586984) rotate(0 186.92307692307713 -1.5384615384609788)"><path d="M345.57 -13.11 C356.54 -9.21, 367.52 -5.32, 373.85 -3.08 M345.57 -13.11 C352.24 -10.74, 358.9 -8.38, 373.85 -3.08" stroke="#000000" stroke-width="1" fill="none"></path></g></g><g stroke-linecap="round"><g transform="translate(922.1654485296522 231.32746665100512) rotate(0 -1.4105275283955052 68.46153846153902)"><path d="M0 0 C-0.59 28.45, -1.17 56.9, -2.82 136.92 M0 0 C-0.72 35.17, -1.45 70.33, -2.82 136.92" stroke="#000000" stroke-width="1" fill="none"></path></g><g transform="translate(922.1654485296522 231.32746665100512) rotate(0 -1.4105275283955052 68.46153846153902)"><path d="M-12.5 108.53 C-10.49 114.43, -8.48 120.33, -2.82 136.92 M-12.5 108.53 C-10.01 115.82, -7.53 123.11, -2.82 136.92" stroke="#000000" stroke-width="1" fill="none"></path></g><g transform="translate(922.1654485296522 231.32746665100512) rotate(0 -1.4105275283955052 68.46153846153902)"><path d="M8.02 108.95 C5.77 114.76, 3.51 120.57, -2.82 136.92 M8.02 108.95 C5.23 116.13, 2.45 123.32, -2.82 136.92" stroke="#000000" stroke-width="1" fill="none"></path></g></g><g stroke-linecap="round"><g transform="translate(1062.1153846153857 423.6351589586984) rotate(0 176.15384615384596 0.7692307692309441)"><path d="M0 0 C109.76 0.48, 219.53 0.96, 352.31 1.54 M0 0 C106.71 0.47, 213.42 0.93, 352.31 1.54" stroke="#000000" stroke-width="1" fill="none"></path></g><g transform="translate(1062.1153846153857 423.6351589586984) rotate(0 176.15384615384596 0.7692307692309441)"><path d="M324.07 11.68 C332.87 8.52, 341.67 5.36, 352.31 1.54 M324.07 11.68 C332.62 8.61, 341.18 5.53, 352.31 1.54" stroke="#000000" stroke-width="1" fill="none"></path></g><g transform="translate(1062.1153846153857 423.6351589586984) rotate(0 176.15384615384596 0.7692307692309441)"><path d="M324.16 -8.85 C332.93 -5.61, 341.7 -2.38, 352.31 1.54 M324.16 -8.85 C332.69 -5.7, 341.21 -2.55, 352.31 1.54" stroke="#000000" stroke-width="1" fill="none"></path></g></g><g stroke-linecap="round"><g transform="translate(1602.1153846153857 725.935433841064) rotate(0 -260.7692307692314 -0.2503655366726889)"><path d="M0 0 C-200.54 -0.19, -401.09 -0.39, -521.54 -0.5 M0 0 C-108.75 -0.1, -217.49 -0.21, -521.54 -0.5" stroke="#000000" stroke-width="1" fill="none"></path></g><g transform="translate(1602.1153846153857 725.935433841064) rotate(0 -260.7692307692314 -0.2503655366726889)"><path d="M-493.34 -10.73 C-504.18 -6.8, -515.03 -2.86, -521.54 -0.5 M-493.34 -10.73 C-499.22 -8.6, -505.1 -6.47, -521.54 -0.5" stroke="#000000" stroke-width="1" fill="none"></path></g><g transform="translate(1602.1153846153857 725.935433841064) rotate(0 -260.7692307692314 -0.2503655366726889)"><path d="M-493.36 9.79 C-504.19 5.83, -515.03 1.88, -521.54 -0.5 M-493.36 9.79 C-499.23 7.64, -505.11 5.5, -521.54 -0.5" stroke="#000000" stroke-width="1" fill="none"></path></g></g><g stroke-linecap="round"><g transform="translate(2077.659198825443 468.18722984204305) rotate(0 -106.26346830234661 103.11492109338815)"><path d="M0 0 C-79.64 77.28, -159.28 154.56, -212.53 206.23 M0 0 C-74.39 72.19, -148.78 144.37, -212.53 206.23" stroke="#000000" stroke-width="1" fill="none"></path></g><g transform="translate(2077.659198825443 468.18722984204305) rotate(0 -106.26346830234661 103.11492109338815)"><path d="M-199.44 179.23 C-204.34 189.35, -209.25 199.47, -212.53 206.23 M-199.44 179.23 C-204.02 188.68, -208.6 198.13, -212.53 206.23" stroke="#000000" stroke-width="1" fill="none"></path></g><g transform="translate(2077.659198825443 468.18722984204305) rotate(0 -106.26346830234661 103.11492109338815)"><path d="M-185.15 193.96 C-195.41 198.56, -205.67 203.16, -212.53 206.23 M-185.15 193.96 C-194.73 198.26, -204.32 202.55, -212.53 206.23" stroke="#000000" stroke-width="1" fill="none"></path></g></g><g stroke-linecap="round" transform="translate(1620.6923076923076 891.442851266389) rotate(0 124.5 44.5)"><path d="M0 0 C96.93 0, 193.85 0, 249 0 M0 0 C60.61 0, 121.23 0, 249 0 M249 0 C249 31.8, 249 63.59, 249 89 M249 0 C249 18.02, 249 36.04, 249 89 M249 89 C179.75 89, 110.5 89, 0 89 M249 89 C190.76 89, 132.51 89, 0 89 M0 89 C0 57.16, 0 25.32, 0 0 M0 89 C0 60.68, 0 32.36, 0 0" stroke="#000000" stroke-width="1" fill="none"></path></g><g transform="translate(1625.6923076923076 923.942851266389) rotate(0 119.5 12)"><text x="119.5" y="19" font-family="Cascadia, Segoe UI Emoji" font-size="20px" fill="#000000" text-anchor="middle" style="white-space: pre;" direction="ltr">Bot action</text></g><g stroke-linecap="round"><g transform="translate(1744.9992326144538 779.0197743433127) rotate(0 -0.018027929681693422 48.46153846153857)"><path d="M0 0 C-0.01 30.09, -0.02 60.18, -0.04 96.92 M0 0 C-0.01 23.76, -0.02 47.51, -0.04 96.92" stroke="#000000" stroke-width="1" fill="none"></path></g><g transform="translate(1744.9992326144538 779.0197743433127) rotate(0 -0.018027929681693422 48.46153846153857)"><path d="M-10.29 68.73 C-7.1 77.48, -3.92 86.23, -0.04 96.92 M-10.29 68.73 C-7.77 75.64, -5.26 82.55, -0.04 96.92" stroke="#000000" stroke-width="1" fill="none"></path></g><g transform="translate(1744.9992326144538 779.0197743433127) rotate(0 -0.018027929681693422 48.46153846153857)"><path d="M10.24 68.74 C7.05 77.49, 3.86 86.24, -0.04 96.92 M10.24 68.74 C7.72 75.64, 5.2 82.55, -0.04 96.92" stroke="#000000" stroke-width="1" fill="none"></path></g></g><g stroke-linecap="round" transform="translate(10 173.59669742023652) rotate(0 57 330.5)"><path d="M0 0 C40.45 0, 80.91 0, 114 0 M0 0 C29.47 0, 58.95 0, 114 0 M114 0 C114 144.13, 114 288.26, 114 661 M114 0 C114 248.72, 114 497.45, 114 661 M114 661 C68.6 661, 23.19 661, 0 661 M114 661 C90.58 661, 67.16 661, 0 661 M0 661 C0 495.66, 0 330.32, 0 0 M0 661 C0 441.73, 0 222.46, 0 0" stroke="#000000" stroke-width="1" fill="none"></path></g><g transform="translate(15 420.0966974202365) rotate(0 52 84)"><text x="52" y="19" font-family="Cascadia, Segoe UI Emoji" font-size="20px" fill="#000000" text-anchor="middle" style="white-space: pre;" direction="ltr">Channel</text><text x="52" y="43" font-family="Cascadia, Segoe UI Emoji" font-size="20px" fill="#000000" text-anchor="middle" style="white-space: pre;" direction="ltr"></text><text x="52" y="67" font-family="Cascadia, Segoe UI Emoji" font-size="20px" fill="#000000" text-anchor="middle" style="white-space: pre;" direction="ltr">(Web, </text><text x="52" y="91" font-family="Cascadia, Segoe UI Emoji" font-size="20px" fill="#000000" text-anchor="middle" style="white-space: pre;" direction="ltr">Telegram</text><text x="52" y="115" font-family="Cascadia, Segoe UI Emoji" font-size="20px" fill="#000000" text-anchor="middle" style="white-space: pre;" direction="ltr">, </text><text x="52" y="139" font-family="Cascadia, Segoe UI Emoji" font-size="20px" fill="#000000" text-anchor="middle" style="white-space: pre;" direction="ltr">Whatsapp</text><text x="52" y="163" font-family="Cascadia, Segoe UI Emoji" font-size="20px" fill="#000000" text-anchor="middle" style="white-space: pre;" direction="ltr">etc)</text></g><g stroke-linecap="round"><g transform="translate(142.11538461538476 425.1736204971585) rotate(0 126.15384615384619 -1.5384615384614335)"><path d="M0 0 C97.96 -1.19, 195.93 -2.39, 252.31 -3.08 M0 0 C60.75 -0.74, 121.49 -1.48, 252.31 -3.08" stroke="#000000" stroke-width="1" fill="none"></path></g><g transform="translate(142.11538461538476 425.1736204971585) rotate(0 126.15384615384619 -1.5384615384614335)"><path d="M224.24 7.53 C235.14 3.41, 246.04 -0.71, 252.31 -3.08 M224.24 7.53 C231 4.97, 237.76 2.42, 252.31 -3.08" stroke="#000000" stroke-width="1" fill="none"></path></g><g transform="translate(142.11538461538476 425.1736204971585) rotate(0 126.15384615384619 -1.5384615384614335)"><path d="M223.99 -12.99 C234.99 -9.14, 245.98 -5.29, 252.31 -3.08 M223.99 -12.99 C230.81 -10.61, 237.63 -8.22, 252.31 -3.08" stroke="#000000" stroke-width="1" fill="none"></path></g></g><g stroke-linecap="round"><g transform="translate(800.5769230769229 732.8659281894661) rotate(0 -330.76923076923094 0.7692307692313989)"><path d="M0 0 C-155.95 0.36, -311.9 0.73, -661.54 1.54 M0 0 C-190.11 0.44, -380.23 0.88, -661.54 1.54" stroke="#000000" stroke-width="1" fill="none"></path></g><g transform="translate(800.5769230769229 732.8659281894661) rotate(0 -330.76923076923094 0.7692307692313989)"><path d="M-633.37 -8.79 C-640.01 -6.35, -646.65 -3.92, -661.54 1.54 M-633.37 -8.79 C-641.47 -5.82, -649.56 -2.85, -661.54 1.54" stroke="#000000" stroke-width="1" fill="none"></path></g><g transform="translate(800.5769230769229 732.8659281894661) rotate(0 -330.76923076923094 0.7692307692313989)"><path d="M-633.32 11.73 C-639.98 9.33, -646.63 6.93, -661.54 1.54 M-633.32 11.73 C-641.43 8.8, -649.54 5.87, -661.54 1.54" stroke="#000000" stroke-width="1" fill="none"></path></g></g><g transform="translate(148.8496503496508 374.93974493066344) rotate(0 109 12.5)"><text x="109" y="20" font-family="Cascadia, Segoe UI Emoji" font-size="20.549356223175987px" fill="#000000" text-anchor="middle" style="white-space: pre;" direction="ltr">User query payload</text></g><g stroke-linecap="round" transform="translate(1618.9052059052074 538.3736981972343) rotate(0 124.5 44.5)"><path d="M0 0 C75.42 0, 150.84 0, 249 0 M0 0 C73.02 0, 146.05 0, 249 0 M249 0 C249 25.47, 249 50.93, 249 89 M249 0 C249 34.94, 249 69.88, 249 89 M249 89 C193.34 89, 137.69 89, 0 89 M249 89 C154.62 89, 60.23 89, 0 89 M0 89 C0 57.17, 0 25.35, 0 0 M0 89 C0 57.06, 0 25.11, 0 0" stroke="#000000" stroke-width="1" fill="none"></path></g><g transform="translate(1623.9052059052074 570.8736981972343) rotate(0 119.5 12)"><text x="119.5" y="19" font-family="Cascadia, Segoe UI Emoji" font-size="20px" fill="#000000" text-anchor="middle" style="white-space: pre;" direction="ltr">Custom prompt</text></g><g stroke-linecap="round"><g transform="translate(1721.5870240870254 524.6918800154172) rotate(0 -29.09090909090901 -23.636363636363967)"><path d="M0 0 C-20.37 -16.55, -40.73 -33.09, -58.18 -47.27 M0 0 C-15.07 -12.24, -30.14 -24.49, -58.18 -47.27" stroke="#000000" stroke-width="1" fill="none"></path></g><g transform="translate(1721.5870240870254 524.6918800154172) rotate(0 -29.09090909090901 -23.636363636363967)"><path d="M-29.83 -37.46 C-39.76 -40.89, -49.68 -44.33, -58.18 -47.27 M-29.83 -37.46 C-37.18 -40, -44.52 -42.54, -58.18 -47.27" stroke="#000000" stroke-width="1" fill="none"></path></g><g transform="translate(1721.5870240870254 524.6918800154172) rotate(0 -29.09090909090901 -23.636363636363967)"><path d="M-42.77 -21.53 C-48.17 -30.54, -53.56 -39.55, -58.18 -47.27 M-42.77 -21.53 C-46.76 -28.2, -50.75 -34.87, -58.18 -47.27" stroke="#000000" stroke-width="1" fill="none"></path></g></g><g stroke-linecap="round" transform="translate(823.4871794871806 1089.0547589665284) rotate(0 124.5 44.5)"><path d="M0 0 C69.51 0, 139.02 0, 249 0 M0 0 C70.85 0, 141.7 0, 249 0 M249 0 C249 26.6, 249 53.2, 249 89 M249 0 C249 28.05, 249 56.1, 249 89 M249 89 C168.77 89, 88.53 89, 0 89 M249 89 C179.71 89, 110.41 89, 0 89 M0 89 C0 54.85, 0 20.69, 0 0 M0 89 C0 65.49, 0 41.99, 0 0" stroke="#000000" stroke-width="1" fill="none"></path></g><g transform="translate(828.4871794871806 1121.5547589665284) rotate(0 119.5 12)"><text x="119.5" y="19" font-family="Cascadia, Segoe UI Emoji" font-size="20px" fill="#000000" text-anchor="middle" style="white-space: pre;" direction="ltr">Ad hoc bot message</text></g><g stroke-linecap="round"><g transform="translate(943.8205128205145 1073.5547589665284) rotate(0 -1.6666666666667425 -139.16666666666697)"><path d="M0 0 C-1.21 -101.09, -2.42 -202.18, -3.33 -278.33 M0 0 C-1.16 -96.8, -2.32 -193.6, -3.33 -278.33" stroke="#000000" stroke-width="1" fill="none"></path></g><g transform="translate(943.8205128205145 1073.5547589665284) rotate(0 -1.6666666666667425 -139.16666666666697)"><path d="M7.26 -250.27 C3.42 -260.46, -0.43 -270.65, -3.33 -278.33 M7.26 -250.27 C3.58 -260.03, -0.11 -269.79, -3.33 -278.33" stroke="#000000" stroke-width="1" fill="none"></path></g><g transform="translate(943.8205128205145 1073.5547589665284) rotate(0 -1.6666666666667425 -139.16666666666697)"><path d="M-13.26 -250.02 C-9.65 -260.3, -6.05 -270.59, -3.33 -278.33 M-13.26 -250.02 C-9.8 -259.87, -6.35 -269.71, -3.33 -278.33" stroke="#000000" stroke-width="1" fill="none"></path></g></g></svg>